<svg width="1920" height="377" viewBox="0 0 1920 377" fill="none" xmlns="http://www.w3.org/2000/svg">
<path d="M1920 365.188C1854.37 379.779 1795.99 363.043 1795.99 276.788V3.64761H1875.47V260.052C1875.47 292.88 1889.96 303.823 1919.79 297.6V365.188H1920Z" fill="#FAFDF5"/>
<path d="M1675.6 3.64761H1757.43V367.763H1675.6V3.64761Z" fill="#FAFDF5"/>
<path d="M1566.94 264.772L1582.71 137.75C1585.26 118.01 1575.25 105.351 1559.91 108.355C1544.57 111.144 1531.14 138.394 1525.82 149.551L1481.28 238.595C1469.56 262.197 1448.9 266.918 1435.26 266.918C1413.53 266.918 1395.84 249.323 1395.84 227.009C1395.84 211.56 1406.92 197.614 1423.75 184.311L1497.69 126.807C1529.65 102.132 1542.86 92.6917 1566.73 92.6917C1588.88 92.6917 1603.8 108.14 1608.7 132.601L1642.15 305.11C1649.82 345.234 1637.47 376.131 1599.54 376.131C1569.5 376.131 1555.01 357.464 1555.01 335.578V316.911C1555.01 297.171 1544.35 294.597 1531.57 305.539L1495.56 335.578C1478.73 349.525 1451.45 376.131 1421.2 376.131C1399.89 376.131 1376.02 364.33 1376.02 330.643C1376.02 301.892 1402.45 290.091 1434.83 289.447L1529.65 287.301C1550.53 286.872 1564.59 283.01 1566.73 264.772H1566.94Z" fill="#FAFDF5"/>
<path d="M1093.06 367.763L1012.95 150.195C1006.77 132.601 999.525 119.727 991.428 111.788C983.758 103.634 976.513 99.7723 969.908 99.7723V94.4082H1115.86V99.7723C1109.68 99.7723 1105.42 103.849 1103.29 111.788C1101.16 119.941 1103.29 132.601 1110.11 150.195L1159.33 281.937L1190.65 193.322L1174.88 150.195C1168.7 132.601 1161.46 119.727 1153.36 111.788C1145.69 103.634 1138.45 99.7723 1131.84 99.7723V94.4082H1277.8V99.7723C1271.62 99.7723 1267.36 103.849 1265.23 111.788C1263.1 119.941 1265.23 132.601 1272.05 150.195L1321.27 281.937L1368.99 149.122C1372.19 140.754 1373.47 133.244 1373.25 127.022C1373.25 120.8 1372.19 115.435 1370.06 111.144C1367.93 106.853 1365.16 103.849 1361.75 102.132C1358.55 99.9868 1355.57 98.914 1352.37 98.914V94.1936H1435.69V98.914C1432.49 98.914 1428.44 99.9868 1423.75 102.132C1418.85 103.849 1413.74 106.853 1408.63 111.144C1403.72 115.435 1398.82 120.585 1393.92 127.022C1389.45 133.244 1385.61 140.754 1382.42 149.122L1303.37 367.763H1255.21L1197.68 211.131L1141.22 367.763H1093.06Z" fill="#FAFDF5"/>
<path d="M721.678 234.733C721.678 152.555 778.995 92.6917 858.471 92.6917C948.174 92.6917 1001.44 169.077 988.019 260.266H802.22C804.776 290.949 828.001 313.907 859.962 313.907C885.744 313.907 907.904 298.888 915.787 277.431L983.332 287.301C973.53 336.222 924.95 376.345 858.897 376.345C778.995 376.345 721.678 316.482 721.678 234.948V234.733ZM911.1 200.617C911.1 174.655 889.366 152.77 858.471 152.77C827.575 152.77 806.907 172.08 802.646 200.617H911.1Z" fill="#FAFDF5"/>
<path d="M628.565 104.493V207.054H573.166V310.903H522.881V207.054H467.482V104.493H405.478V212.848H461.303V316.482H517.341V367.763H579.345V316.482H634.744V212.848H691.208V104.493H628.565Z" fill="#FAFDF5"/>
<path d="M328.558 0C353.275 0 372.025 18.8816 372.025 43.342C372.025 67.8023 353.275 87.113 328.558 87.113C303.842 87.113 285.518 68.2314 285.518 43.342C285.518 18.4525 304.268 0 328.558 0Z" fill="#FAFDF5"/>
<path d="M366.485 329.57V103.634L260.375 147.406L290.844 163.712V329.57L261.44 367.763H395.889L366.485 329.57Z" fill="#FAFDF5"/>
<path d="M0 185.383C0 227.223 15.7674 370.552 123.795 370.552C231.823 370.552 258.031 264.128 258.031 264.128L164.279 182.809C164.279 182.809 63.9219 320.773 43.4669 296.313C22.7988 271.853 194.749 2.3602 194.749 2.3602H38.14C38.14 2.3602 0 108.784 0 185.383Z" fill="#FAFDF5"/>
</svg>
